<?xml version="1.0" encoding="UTF-8"?>
<svg id="Layer_1" data-name="Layer 1" xmlns="http://www.w3.org/2000/svg" viewBox="0 0 385.28 377.25">
  <path d="m14.79,215.98h47.46c5.23,0,10.06-2.76,12.72-7.26l35.33-59.88c5.7-9.67,19.68-9.69,25.42-.04l35.64,59.96c2.66,4.48,7.49,7.22,12.7,7.22h47.17c11.39,0,18.49-12.34,12.77-22.19L135.75,7.35c-5.69-9.81-19.86-9.81-25.55,0L2.02,193.8c-5.71,9.85,1.39,22.18,12.78,22.18Zm2.08,161.27h216.21c11.28,0,18.4-12.13,12.89-21.98l-23.48-41.99c-2.61-4.67-7.54-7.56-12.89-7.56h-70.38c-11.31,0-18.43-12.2-12.86-22.04l34.09-60.26c2.6-4.6,2.55-10.25-.15-14.8l-24.35-41.11c-5.78-9.76-19.95-9.63-25.55.24L4.03,355.19c-5.59,9.85,1.52,22.06,12.85,22.06Zm138.34-81.15h215.27c11.35,0,18.46-12.26,12.82-22.11l-107.98-188.53c-5.62-9.82-19.74-9.93-25.52-.2l-24.39,41.08c-2.69,4.53-2.76,10.15-.19,14.75l34.85,62.33c5.51,9.85-1.61,21.98-12.89,21.98h-68.84c-5.34,0-10.26,2.88-12.88,7.53l-23.14,41.17c-5.53,9.85,1.58,22.01,12.88,22.01Z"/>
</svg>