<?xml version="1.0" encoding="UTF-8"?>
<svg id="Layer_1" data-name="Layer 1" xmlns="http://www.w3.org/2000/svg" viewBox="0 0 463.3 483.66">
  <defs>
    <style>
      .cls-1 {
        fill: #ff0;
      }

      .cls-2 {
        fill: #fcee21;
      }
    </style>
  </defs>
  <path class="cls-1" d="m449.84,231.22c-.43-3.33,1.64-3.36,1.47-6.71s5.32-3.06,5.38-6.43-5.44-3.53-5.61-6.97-5.05-2.86-5.41-6.26,9.15-4.97,8.41-8.31-1.45-4.54-2.94-7.74c-1.39-3-3.94-1.12-4.77-4.33-.93-3.58-7.34-1.89-8.26-5.47s-1.23-3.04-2.55-6.49-1.38-3.42-2.73-6.87-4.07-1.69-5.79-5.06,3.98-6.02,1.61-8.92-1.09-4.12-3.84-6.71-10.3,2.8-12.35-.35c-2.18-3.35,9.13-10.4,6.94-13.75-2.06-3.14-8.84,3.45-11.9,1.27s-5.51-.52-8.31-3.18-1.08-4.75-3.57-7.59-3.8-.24-6.61-2.69,3.09-8.72.78-11.53-1.87-3.33-4.43-6.09-6.04,1.52-8.95-.74-3.78-1.64-6.48-4.08.31-5.74-2.45-8.11-4.13-.92-6.77-3.43,4.73-9.45,2.26-12.17-8.69,3.41-11.8,1.46c-3.26-2.04-1.89-4.18-5.3-5.98-3.2-1.69-2.28-2.11-5.02-4.48s-1.33-3.37-3.82-5.91-5.37.52-8.61-1.09c-3.48-1.73-1.32-4.67-4.72-6.55s-7.24,3.82-9.82,1.1-2.31-1.25-5.36-3.2,1.05-8.8-2.12-10.42-6.7,5.06-9.82,3.36-1.62-3.12-5.07-3.96c-3.71-.9-5.51,4.49-9.13,3.25s-.91-7.73-4.28-9.08-3.55-.41-6.81-2.03c-3.48-1.73-2.89-.95-6.57-2.2s-4.87,4.88-8.6,3.67-2.93-5.16-6.33-7.11c-3.08-1.77-2.25-.17-5.68-1.12s-2.59-3.45-6.06-4.24-2.51,2.49-6.07,2.61c-3.89.13-3.8-3.6-7.69-3.32-3.51.25-3.88.11-7.38-.26-.16-.02,5.49-7.24,5.37-7.35-.94-.89-6.58,6.05-7.77,5.52-1.5-.67-.27-.31-1.9-.09-2.04.28-.75-6.95-2.76-7.39s-1.75,2.79-3.67,2.22c-1.12-.33-9.5,3.6-9.23,4.74.39,1.63,11.84.42,10.4,1.28-2.49,1.49-3.09-3.3-5.97-3.63-3.75-.42-4.56-6.52-8.32-6.23s-1.14,14.01-4.59,15.14-5.62-5.24-8.86-3.68-2.48,3.13-5.67,4.96-3.32,1-6.77,1.82c-3.8.89-6.92-5.33-10.28-3.34-3.53,2.09,1.71,9.16-1.35,11.88-2.66,2.37-3.89.36-7.15,1.79s-6.36-3.18-9.38-1.23-4.48,1.4-7.22,3.71,1.08,6.09-2,7.86-.1,6.67-3.22,8.68.71,5.33-2,7.69-11.7-8.94-14.62-6.89-1.16,4.71-4.06,6.85-4.6.13-7.39,2.36-2.03,4.45-4.1,7.38c-2.34,3.32,8.44,10.26,6.2,13.64-1.93,2.9-7.17,2.44-10.3,3.99-3.55,1.76-3.46.53-6.86,2.58-3.02,1.82-11.88-6.72-13.87-3.82s5.15,7.9,3.22,10.97,1.13,5.43-1.07,8.16-3.41,2.72-6.16,4.8c-3.02,2.28-2.94,2.26-5.98,4.52-2.85,2.13.83,2.26-.88,5.38s-11.81-2.17-13.42,1.17,5.6,6.25,4.29,9.65c-1.38,3.58,2.46,5.54.66,8.93s-4.08,1.76-5.96,5.31c-1.76,3.32-9.41.13-10.19,3.8s8.29,5.49,7.48,9,1.14,4.28.17,7.8-11.32.51-12.36,4,9.93,6.14,9.13,9.68-14.41-.46-15.68,2.92-3.17,2.63-4.43,6,8.66,6.72,7.85,10.16-2.32,2.98-2.66,6.5-8.33,2.01-9.01,5.54,13.14,6.42,12.29,9.9-7.22,1.83-7.17,5.36-1.96,3.47-2.15,7.13-3.1,2.38-3.91,5.81,3.42,4.46,2.71,7.93,3.75,4.31,3.1,7.79-1.24,3.2-1.68,6.74-12.8,5-12.04,8.47c.85,3.93,19.45.77,19.77,4.77s-7.48,4.67-8.25,8.48.96,2.34,1.8,5.98c.89,3.85,2.71,2.29,4.21,5.95,1.38,3.37-1.35,4.79-.39,8.3s1.86,3.82,2.18,7.44c.33,3.83-.59,3.46.08,7.24s-8.17,6.03-6.98,9.55,8.99.91,9.89,4.45-1.09,4.01-.24,7.56,7.25,1.68,8.32,5.24-6.66,6.43-4.47,9.37c2.39,3.21,10.56-1.33,12.16,2.33s-10.51,8.17-8.94,11.88,13.59-4.17,15.89-1.02c2.15,2.93-9.04,10.04-7.44,13.31s7.43.64,8.58,4.09c1.23,3.7,1.55,3.35,2.95,6.98,1.33,3.42-4.66,7.48-2.23,10.22s7.58-1.56,9.7,1.6c2,3,1.03,3.51,2.63,6.75s-2.21,7.04.47,9.24c2.93,2.4,2.7,2.87,5.74,5.11,2.73,2,5.3-1.81,7.7.56s.88,4.6,3.6,6.59,11.46-7.05,13.71-4.55c2.64,2.94-6.26,11.1-3.01,13.34,3.09,2.13,7.96-8.67,11.34-7.05s-4.79,15.49-1.72,17.51c2.89,1.9,5.48,3.36,8.89,3.92,3.76.62,5.62-11.92,9.4-11.39,3.51.5.94,10.23,4.25,11.49s2.25,3.65,5.56,4.97,5.85-5.39,8.98-3.74c3.36,1.77.8,6.68,4.19,8.38,3.2,1.61,4.95-.3,8.41.6s4.03.14,7.58.57,4.66-7.33,8.25-6.78,2.56,6.32,6.08,7.01,3.22-5.44,6.79-5.69c3.79-.27,4.09,2.15,7.89,2.31s4.1-4.48,7.7-4.08,2.61,4.3,6.22,4.24,3.92.27,7.44.65,2.63,7.39,6.15,7.9,4.63-11.36,8.2-11.12,2.26,3.55,5.77,3.04,3.92,1.84,7.53,1.37,4.33-1.51,7.83-.94c3.77.61,3.34,13.02,7.15,12.84s1.64-16.46,5.31-17.13,4.87,7.83,8.45,7.42,3.34,2.44,6.92,2.38c3.85-.06,3.65.91,7.5.84,3.59-.07,2.53-8.61,6.03-9.4s5.97,8.75,9.41,7.76-.89-12.14,2.34-13.76,7.39,7.64,10.84,6.33,1.86-.22,5.41-.3c3.92-.08,4.99,2.92,8.86,2.25,3.58-.63.84-11.24,4.2-12.63s6.42,6.82,9.78,5.58,1.24-6.67,4.12-8.8c3.15-2.33,1.16-4.83,4.34-7.11,2.87-2.06,5.52,3.69,8.92,2.74s4.39,2.89,7.98,2,.08-11.78,3.4-13.18,7.95,8.7,11.16,7.13-.31-8.32,2.6-10.43c3.17-2.3.29-6.29,3.51-8.51s2.98-1.18,5.94-3.65,3.01-1.9,5.98-4.62,3.23-3.63,6.55-5.56,8.24,5.27,11.19,2.73-3.27-8.23-.87-11.23c2.27-2.83,10.71,2.2,12.03-1.17,1.43-3.66-6.73-6.66-5.22-10.29,1.38-3.31,7.78.93,10.16-1.75,2.5-2.83-2.48-5.79-1.25-9.37,1.29-3.77-3.05-4.49-1.82-8.27s1.3-3.66,2.8-7.18,4.67-1.03,5.13-4.66-4.07-5.3-3.07-8.87,2.34-2.83,3.15-6.47,2.04-2.63,2.27-6.36,5.99-3.11,6.73-6.76-1.7-4.3-.42-7.83,6.33-2.08,7.33-5.73,2.3-4.61,2.31-8.34,1.91-4.67,1.45-8.49-8.71-2.91-8.04-6.58c.71-3.87,10.67-2.85,10.88-6.78s-7.53-4.14-7.76-8.07-.87-3.46-.38-7.17-7.43-3.22-7.68-6.92,13.23-4.4,13.1-8.18-6.45-3.49-5.56-7.11c.94-3.82,4.7-3.2,5.22-7.1s-3.97-4.02-4.46-7.84Z"/>
  <path class="cls-2" d="m455.84,231.22c-.03-1.86,1.78-3.82,1.43-6l.04-.71c-1.69,2.35-1.81,3.01-.37,1.97.68-.06,2.39-1.56,2.77-1.92,3.55-3.3,3.9-8.78.68-12.44-1.19-1.35-3.06-1.96-4.21-3.24,1.51,1.68-.78-2.96-1.56-3.79-.67-.72-1.76-1.77-2.71-2.06-2.79-.84-.04,4.26-1.02,3.94l-.25.29c.51-.34,1.03-.66,1.57-.95.96-.51,1.93-1.04,2.84-1.63,3.55-2.33,5.59-5.43,4.82-9.74s-3.09-10.58-7.1-12.94c-3.75-2.21-.73.95-.6.87-.08.05-.71-1.83-.95-2.22-1.14-1.89-2.9-3.05-4.88-3.88-.82-.35-1.64-.59-2.5-.82-2.15-.59-.48-.22-.35-.03-1.17-1.75-1.91-4.51-2.7-6.48-1.57-3.88-2.62-8.57-6.37-10.94l-.87-.46c-1.85-1.23-2.12-.62-.81,1.82.12,0,1.1-1.81,1.06-1.74,1.16-2.19,1.84-4.73,1.13-7.19-.55-1.92-1.9-3.65-2.71-5.48-.99-2.24-2.26-4.29-4.37-5.67-3.21-2.12-8.62-1.94-12.11-.31-3.25,1.52,4.71,3.89,2.37,5.03-.02,0,.54-.8.74-.98,1.21-1.12,2.27-2.58,3.3-3.87,2.66-3.32,4.84-7.37,2.56-11.56-2.04-3.76-6.34-4.67-10.21-3.61-1.23.34-3.57,1.04-4.59,1.8l-.91.28c1.97.64,2.05.52.24-.36-1.2-.64-2.52-.95-3.84-1.22-2.67-.54-2.1-1.5-3.04-3.86-1.07-2.68-2.95-4.98-5.56-6.26-.94-.46-2.28-1.07-3.35-.91l-.99-.08c1,3.67,1.68,4.44,2.04,2.3,1.1-1.61,1.73-4.72,1.81-6.63.18-4.03-2.4-7.24-4.7-10.33-1.47-1.98-3.14-3.79-5.51-4.63-2.69-.95-4.67.38-7.16.27,1.64.07-1.4-1-1.84-1.25-.26-.14-2.02-.77-2.13-.9-.85-1.01-.44-4.81-1.43-6.57-1.18-2.11-3.27-3.63-5.41-4.61.27.12-2.21-1.06-2.47-.88.01,3.26.25,4,.7,2.21.22-.38.43-.78.61-1.18,1.46-3.24,3.32-6.56,2.16-10.22-1.44-4.55-6.22-6.36-10.61-5.31-1.89.46-3.74,1.91-5.66,2.11-.86.09,2.28,1.33,1.12.03-.74-.83-1.11-2.06-1.88-2.93-1.34-1.51-3.21-2.3-4.65-3.6-1.77-1.59-2.66-3.03-3.72-5.05-1.82-3.45-7.37-8.29-11.71-5.91l-1.23.21c1.19,1.58,1.49,1.63.9.17-.06-.96-.82-2.12-1.31-2.91-1.61-2.62-4.5-4.43-7.57-4.63-2.1-.14-3.98.52-5.87,1.36.14-.06-1.9.84-1.89.9-.1-.6,4.13.86.25-1.45-3.37-2.01-1.65-1.04-1.95.23.49-2.02.54-4.74.09-6.78-.97-4.39-4.97-7.2-9.44-6.54-2.14.32-3.82,1.4-5.55,2.62.12-.09-1.66,1.11-1.66,1.17,2.75.96,3.29.66,1.63-.89-.44-.66-1.01-1.18-1.72-1.57-3.92-2.77-10.37-2.52-13.63,1.36l-.84.54c3.05,2.3,4.39,2.69,4.03,1.18.35-.63-.33-2.92-.52-3.66-.6-2.37-1.82-4.45-3.88-5.84s-4.26-1.44-6.51-2.13c-2.05-.63-3.94-1.67-6-2.3-4.1-1.26-9.98-2.11-12.83,2.18l-.67.67c-.78.89.09,1.01,2.6.37.11-.18-1.12-2.23-1.16-2.3-1.39-2.31-3.3-4.07-5.73-5.23-1.87-.89-4.23-.29-5.86-1.09-.2-.1-1.05-1.44-1.29-1.68-.98-.98-2.24-1.65-3.52-2.13-2.51-.94-5.36-1.06-7.78.23-.77.41-1.9,1.05-2.3,1.84-1.11,1.01-.49,1.08,1.89.22l-.64-.59c-2.26-4.43-11.27-2.91-15.14-3.33l5.18,9.03c1.26-2.72,4.11-4.63,5.37-7.35,1.62-3.49.41-7.67-3.59-8.81s-6.65,1.48-9.27,3.84c-.55.5-1.35,1.02-1.77,1.63-1.64,2.34-1.01-4.2,4.01.33-.93-.83-6.06-1.48-6.26-.05.15-1.1,5.95,3.81,6.59,1.59.19-.67-.22-2.24-.38-2.93-.45-1.98-1.23-3.76-2.87-5.05s-3.61-1.72-5.69-1.37c-1.11.19-5.61,2.15-5.41,3.97-.09-.87,5.55-1.96,2.21-1.82-.7.03-1.36.23-2.02.42-1.71.5-3.42,1.33-5.01,2.12-3.08,1.52-6.51,3.58-6.95,7.3-.56,4.71,3.46,7.05,7.53,7.52,1.42.16,2.83.19,4.25.21.76,0,1.79.12,2.54,0,2.39-.39,1.37,2.07-2.15-1.53v-8.49c3.65-3.67,7.55,1.43,4.67-2.09-.5-.61-1.21-1.16-1.86-1.59-1.57-1.05-2.64-1.04-3.63-1.99-3.31-3.17-5.72-7.06-11.17-5.55-3.58.99-5.29,4.24-5.95,7.64-.16.82-1.62,9.61-1.23,9.91.56.44,4.61-2.4,4.54-2.61-.22-.6-2.3-1.97-2.72-2.26-1.6-1.05-3.44-1.81-5.4-1.76-2.38.07-4.69,1.25-6.45,2.79-1.46,1.28-2.34,3.06-4.25,3.78-3.86,1.47-5.35-2.14-9.48-3.05-4.63-1.02-9.36,1.84-10.43,6.49-.46,1.99-.17,3.97.18,5.95.05.3.23,2.03.44,2.22l.03.19c.36.98,1.06.46,2.11-1.57-.42-.84-5.49.79-5.84.75,1.28.13-1.26-.68-1.4-.74-1.41-.61-2.79-1.11-4.36-1.17-3.82-.14-9.3,2.67-12.27,5-1.77,1.39-3.2,3.05-3.75,5.3-.28,1.16-.29,2.35-.16,3.52.42,3.64,0-.09.7-.02-1.5-.15-2.86,4.16-3.11,5.27s.03,2.7-.3,3.81c.06-.21.66-2.19-.65.39-1.09,2.15-2.2,3.54-2.16,6.12l.13,1.02c-.06,3.32,1.77,2.87,5.48-1.38-.14-.27-1.92-1.18-2.18-1.36-5.82-3.95-13.43-10.81-19.11-2.1-.58.89-.85,3.13-1.53,3.75-.21.2-.68.06-1.09.28-1.16.61-2.95.5-4.23,1.15-1.12.56-2.15,1.35-3.03,2.22-2.47,2.44-5.2,7.96-5.58,11.45-.42,3.8,1.88,6.79,4.11,9.59.43.54,2.19,3.5,2.79,3.69l-.02-.04c-.51-1.12-.24-2.31.8-3.58-.58-.29-3.44.77-4.16.95-2.09.51-4.07,1.36-6.1,2.04-.71.24-4.91,1.4-3.27,1.51-1.86-.12-5.99-3.46-8.37-4.17-3.56-1.07-7.48-.25-9.55,3.07-2.44,3.93-.59,8.02,1.56,11.51.34.54.79,1.11,1.07,1.69.18.37.55-3.14-.54.45-.42,1.37.32,4.78-.01,5.42-.64,1.24-4.16,2.9-5.21,3.69-1.94,1.46-4.15,2.84-5.91,4.49-1.63,1.53-2.77,3.21-2.86,5.54-.04.98.14,1.93.54,2.83l.3.72c.79,2.24,1.84.78,3.16-4.39-.42-.3-3.27-.37-3.92-.48-2.24-.37-4.47-.78-6.72-.33-3.79.77-6.65,3.73-6.77,7.72-.06,1.94.72,3.82,1.74,5.42.58.91,1.48,2.04,2.28,2.79,2.86,2.68-.64-1.9.71-.97-.25-.18-.18,5.84.08,6.7l.41,1.03c.38,1.34.5,1.37.38.08-.23.22-1.35.69-1.74.86-1.15.53-2.3,1.91-3,2.91-2.45,3.51.69-.41.76-.11-.05-.2-5.35.42-5.89.55-3.86.92-6.89,4.17-6.73,8.3.14,3.5,3.65,8.27,7.17,9.27l.81.55c.66.68.51.11-.45-1.73-.32-.11-.1,3.18-.06,3.51.04.36.2,2.56.51,2.68l2.11-2.38c-.17.13-.36.17-.59.11-2.6-1.1-9.01.82-11.09,2.41-3.24,2.49-4.04,6.91-1.9,10.4,1.3,2.11,6.11,6.44,8.67,6.85l.04.06c1.24,1.98,1.94-.17,2.08-6.45.72.29-1.85.05-1.59.1-1.52-.28-3.35-.12-4.9-.13-3.49-.02-7.44.11-10.03,2.81-1.26,1.32-1.99,2.79-3.25,4.11-1.46,1.52-2.67,3.51-3.08,5.57-.96,4.77,2.44,7.87,5.8,10.55.2.16.88.78,1.24.97l.74.64c1.12,1.28,1.05.74-.2-1.63-.71-.11-2.6,5.38-2.29,5.5l1.58-1.86c-.43.13-.87.25-1.32.35-.7.03-1.58.35-2.24.56-2.03.65-3.83,1.53-5.24,3.16-6.63,7.65,3.25,12.94,8.92,15.94.47.25,1.83,1.31,2.34,1.32l-.02-.02c-1.44-1.41-1.14-3.4.9-5.97-1.03-.27-3.99,1.23-4.91,1.78-1.76,1.05-3.16,2.73-3.77,4.69-.24.77-.1,1.93-.3,2.6-.27.96-1.14,2.04-1.47,3-.15.45-1.21,4.21.15,1.98-.34.55-1.42,1-1.94,1.52-1.67,1.67-2.65,3.95-2.86,6.28s.4,4.29,1.58,6.23c1.35,2.21.74,1.79,1.28,4.36.45,2.17,1.84,3.29,2.82,5.11l.63.72c-.52-1.17-.82-1.1-.91.22-.39.53-.54,1.56-.69,2.2-.93,3.88.82.23.91.33.02.02-1.67.93-1.86,1.02-1.73.85-3.59,1.43-5.32,2.27-7.17,3.47-8.97,12.97-.1,15.71,2.96.92,6.27.93,9.34,1.08,1.59.08,3.23.04,4.81.27-19.95-2.88,1.56.02.86.11.44.08.88.2,1.31.34.46-5.61-.44-7.51-2.69-5.7-3.12.66-6.88,4.62-7.87,7.53-1.48,4.36.44,7.44,1.97,11.29.34.85.64,1.57,1.13,2.31.31.46,2.61,2.37,2.75,2.74.05.12-.76,2.95-.81,3.67-.36,4.81,2.43,8.8,2.19,13.67-.04.78-.34,2.1.06,2.82l.11.8c.94-1.7.93-2.01-.02-.93-1.18.49-2.85,2.12-3.77,3-3.03,2.93-4.44,7.42-1.98,11.2,1.16,1.78,2.92,2.98,4.91,3.64,1.07.36,4.3,1.38,5.44.88l.34.09c-1.13-2.56-1.8-2.99-2.01-1.28-.32.46-.37,1.95-.4,2.52-.13,2.68.49,5.4,2.25,7.47,1.22,1.43,2.86,2.33,4.63,2.92.55.19,2.13.83,2.69.68l.88.25-1.59-4.33c-.42-.09-2.45,2.6-2.84,3.09-1.47,1.85-2.5,3.86-2.34,6.29.3,4.73,4.37,7.56,8.81,7.85,1.52.1,3.43.14,4.91-.27.49-.14,1.07.1,1.54-.12.04-5.59-.8-7.33-2.51-5.2-.33.32-.67.62-1.02.91-2.44,2.13-5.36,3.79-7.04,6.68-2.14,3.69-1.43,8.44,2.31,10.79,3.04,1.9,6.7,1.15,9.93.27,1.51-.41,3.31-.76,4.71-1.43.23-.11,1.51-.19,1.76-.42-1.5,1.35-2.57-5.65-3.71-5.17-2.04.86-5.41,5.94-6.49,7.9-2.2,4-1.53,8.61,2.32,11.32,1.46,1.03,3.65,1.98,5.49,1.87-.5.03,1.16.08,1.31.15-1.93-.84-.57.32.1,1.82.32.73.92,1.53,1.09,2.32.31,1.43.84-1.45-.39.83-1.13,2.12-2.38,4.27-2.39,6.76-.02,4.64,3.76,8.08,8.18,8.54.43.04,5.41.01,5.5-.55l-1.97-.81c.18.61.33,1.24.47,1.86.09.8,1.12,2.19,1.16,2.62.17,1.82-1.04,3.92-.92,5.85.14,2.33,1.14,4.26,2.72,5.94,3.07,3.26,7.25,7.53,12,7.46,1.15-.02,2.45-.32,3.55-.67-1.74.55-1.65-1.61-1.66.76,0,2.05,2.75,4.69,4.37,5.65,3.6,2.16,7.53.66,10.89-1.17,1.41-.77,3.12-1.57,4.38-2.58l.83-.43c2.23-.64.64-2.2-4.78-4.7-.2.13-.12.71-.35.94-2.02,2.06-3.97,7.28-3.96,10.09.02,4.18,3.34,7.64,7.54,7.71s6.79-3.02,9.33-5.71c.45-.48,1.43-1.18,1.68-1.76,1.03-2.34-4.51-5.86-5.68-3.9-.31.52-.62,2.65-.92,3.67-.96,3.25-2.38,6.68-2.31,10.13.16,7.99,13.63,14.6,20.21,10.36,2.92-1.88,4.21-5.22,5.69-8.19.16-.32.78-1.28.86-1.71l.44-.78c-.47-2.18-2.57-2.83-6.3-1.95-.33,1.27.5,4.41.7,5.6.27,1.64.59,3.19,1.49,4.66,1.01,1.64,2.44,1.92,3.53,2.9,1.54,1.39,2.1,3.21,3.99,4.43,2.17,1.4,4.86,1.99,7.39,1.3,1.69-.46,3.7-1.68,4.88-2.96l.72-.65c1.95-1.37.69-1.98-3.77-1.81-.05.12.55,3.3.33,2.19,1.06,5.24,5.22,8.69,10.65,8.69,4.38,0,8.74.58,13.15.5,3.52-.06,8.76-2.99,9.58-6.82l.54-.81c-3.71-1.36-5.19-1.25-4.44.34,0,.25.71,1.79.97,2.28.9,1.63,2.14,3.18,3.78,4.12,4.35,2.49,9.09.72,11.75-3.18.11-.16,1.4-2.33,1.37-2.35l-1.98.9.88.5c1.3,1.55,5.27,1.89,7.08,1.82,2.28-.09,4.12-.95,5.89-2.31.28-.22,2.09-1.55,2-1.88-2.72-1.18-3.49-1.11-2.31.22.36.56.77,1.07,1.25,1.53,3.09,2.98,8.36,3.02,12.45,3.12-1.62-.04-.89-2.52-1.18-.32-.08.6,1.08,2.84,1.3,3.24,1.17,2.15,2.83,3.86,5.17,4.7,3.75,1.33,7.38-.45,9.52-3.59.64-.94,4.27-7.26,3.78-8.12l-2.5-.05c-2.69-.71-3.21-.32-1.56,1.16.39.71,1.6,1.6,2.2,1.95,1.97,1.13,3.73.51,5.76.96,1.88.42,3.28,1.42,5.32,1.5.49.02,7.66-.84,7.64-1.14l-1.81-1.23.06.06s.77,2.53.82,2.69c.43,1.51.78,3.02,1.33,4.49,1.36,3.65,4,7.05,8.3,6.99,8.34-.12,8.09-10.47,8.86-16.3.1-.75.84-2.67.67-3.35l-.73,1.17c-5.03-1.28-6.69-.9-4.99,1.15.09.4.88,1.43,1.05,1.69,1.1,1.61,2.19,3.21,3.83,4.32,1.77,1.2,3.26,1.01,5.13,1.57,1.98.59,3.3,1.99,5.54,2.28,1.88.24,3.72.45,5.6.72,5.23.74,9.11-.87,11.16-5.9.39-.95,1.72-3.56,1.45-4.57l.11-.22c-4.98-.72-6.54-.24-4.68,1.45.19.53.69,1.04,1.03,1.49,2.38,3.17,4.82,6.54,9.27,6.41s6.84-3.26,7.53-7.19c.33-1.83.18-3.65.04-5.49-.24-3.27,1.12-4.65-2.77-2.73-4,1.98-2.76.49-1.73,2.17.46.75,1.46,1.55,2.1,2.16,1.4,1.32,2.89,2.51,4.73,3.17,1.67.59,3.45.76,5.19.24,2.63-.78.79-.48-.02-.47,1.17-.02,3.21.07,4.32.42,4.06,1.27,7.68,3.71,11.97,1.18,3.74-2.2,4.24-6.59,4.55-10.49.05-.58.19-1.43.14-2.04l.09-.99c.83-1.84-.87-1.38-5.1,1.36.28.88,2.26,2.37,2.93,2.98,3.24,2.94,7.68,4.55,11.65,1.86,3.64-2.46,3-5.96,4.48-9.25.83-1.84,3.58-3.26,3.57-5.7l.26-1.03c-3.79-.15-4.76.26-2.89,1.23.39.65,1.8,1.31,2.42,1.65,2.08,1.13,3.51.82,5.67,1.24.67.13,2.81,1.31,4.13,1.71,4.55,1.4,9.32-.78,10.88-5.29.63-1.84,1.78-8.03.8-9.75-.73-1.28-6.34-.19-4.79,2.19.31.48.98,1.02,1.39,1.45,1.43,1.52,2.85,3.18,4.64,4.29,3.34,2.06,7.55,2.02,10.42-.91,1.65-1.69,2.33-3.92,2.49-6.21.06-.86.03-1.69,0-2.55-.03-.95.23-3.06-.58-1.17.47-1.09,1.81-2.01,2.37-3.2s.73-2.12.93-3.36c.38-2.26.02-1.6,2.05-2.72,3.28-1.81,6.7-4.52,9.53-7,1.52-1.34,2.88-3.28,4.63-4.33.09-.05-1.73-.48-.77-.22.87.24,1.8,1.11,2.58,1.55,3.82,2.13,8.35,3.02,11.85-.32,3.1-2.95,2.89-7.11,1.5-10.78-.16-.43-.48-1.53-.79-1.95l-.33-.96c-3.22,2.25-3.97,3.36-2.25,3.35,1.36.9,4.95.95,6.47.92,9.62-.2,11.1-13,3.22-17.33l-.67-.71-2.73,5.21c.04.08,3.17.39,3.03.37,1.83.18,3.58.16,5.33-.47,4.78-1.73,6.65-6.76,5.15-11.4-.31-.95-1.01-1.86-1.28-2.82-.54-1.95-.1,2.72-.03-1.02.04-2.3.22-4.36-1.01-6.45-.25-.42-1.19-2.72-1.04-.67-.04-.63.72-2.16.92-2.7.31-.84.79-2.38,1.28-3.05-.9,1.24.52.23,1.54-.33,3.97-2.15,5.23-7.03,3.89-11.15-.44-1.35-2.91-3.78-2.9-5.04,0,1.68,3.09-4.38,3.31-4.92.62-1.55,1.85-3.16,2.08-4.85l.21-1.6c-1.13,1.04-1.14,1.2-.03.48.44-.1,1.26-.59,1.69-.86,3.87-2.4,6.76-7.32,5.07-12.02-.86-2.39.26-1.3-1.23-.63.34-.15.93-.39,1.29-.44,2.04-.27,4.2-2.2,5.35-3.77,3.09-4.23,3.22-9.71,4.34-14.55,1.01-4.33,2.26-8.76-1.26-12.44-1.32-1.38-3-2.16-4.73-2.86-.44-.18-1.31-.64-1.73-.65-.41,0-.73-.13-.95-.41-1.54,4.73-1.3,6.74.71,6,2.3.43,7.67-2.46,9.24-3.95,3.12-2.96,3.42-7.55,1.05-11.03-1.09-1.6-2.62-2.65-4.24-3.66-.48-.3-1.2-.53-1.65-.89-1.71-1.38-.46-.17-.39.02-1.6-4.14.97-8.07-2.69-11.72-1.17-1.16-2.63-1.83-4.09-2.51.87.41-1.91-.91-2.02-.92-2.33-.2.97,5.91-.46,5.65.56.1,2.95-1.16,3.44-1.32,1.89-.65,3.89-1.23,5.65-2.18,2.94-1.57,5.35-4.17,5.35-7.7,0-2.9-2.74-8.41-6.13-8.78l-.72-.43c-.24,3.26.25,4.43,1.46,3.49.19-.02,1.55-1.15,1.92-1.52,1.49-1.47,2.5-3.33,2.92-5.37.51-2.46.13-4.94-1.17-7.1-.75-1.24-2.97-2.7-3.29-3.93-1.94-7.47-13.51-4.3-11.57,3.19.55,2.14,1.51,3.92,3.03,5.54l.74.7c1.02,1.27,1.3.77.85-1.51-.07-.05-1.34,1.06-1.45,1.13-3.91,2.08-5.2,8.38-3.23,12.05.79,1.48,2.24,2.93,3.73,3.71.38.2,1.18.91,1.62.91l.41-4.92.15-.16c-.66-.17-3.22,1.24-3.92,1.48-1.74.6-3.56,1.16-5.18,2.03-2.93,1.57-5.31,4.16-5.27,7.7.04,3.78,3.69,8.45,7.69,8.9.37.04.78.74,1.07.38-.35.44-.92-4.33-1.23-.81-.16,1.84.29,3.79.54,5.61.55,3.99,2.96,7.84,7.02,9.22l.82.45c1.97,1.49,2.43-.07,1.37-4.69-.11-.04-.78.34-.94.34-1.31-.04-3.2.89-4.44,1.36-3.82,1.46-7.19,4.45-6.96,8.9s3.48,6.58,7.16,8.03c.52.21,1.4.67,1.96.73-3.09-.3.26-2.27-1.41-.26-1.48,1.79-.78,5.16-1.28,7.27-.25,1.07-1.22,3.95-1.3,4.03-1.19,1.23-3.83,1.44-5.26,2.76-3.93,3.62-3.14,7.7-2.35,12.28-.25-1.46.88-1.01-1.15-.21-.55.22-1.06.6-1.54.94-1.74,1.24-3.13,2.86-3.77,4.92-1.21,3.84-2.57,7.24-4.48,10.84s-2.26,9.47,1.12,12.36l.61.9c2.87-2.76,3.34-3.76,1.4-3.01-.91.12-2.08.89-2.83,1.43-2.11,1.53-3.03,3.61-4.03,5.94-1.66,3.89-3.55,7.94-2.07,12.18.33.94,1.33,2.04,1.58,2.96-.5-1.86-.24.23-.27.98-.09,2.02.07,5.18,1.54,6.8l.47.94c3.73-2.67,4.38-3.91,1.94-3.71-.29-.17-1.15-.16-1.49-.2-1.99-.2-3.85-.49-5.81.16-4.53,1.5-6.6,6.35-5.09,10.73.65,1.88,1.91,3.37,3.24,4.81.37.4,1.59,2.01,2.09,2.14l3.18-5.3-.88-.04c-3.03-1.38-8.48-1.35-11.32.35-3.7,2.22-4.68,6.67-3.58,10.61.28,1.01.75,1.94,1.12,2.92.89,2.36.03,2.44,2.89-.05,3.15-2.74,2.5-1.45.53-2.93-.78-.58-1.7-1.04-2.58-1.45-8.71-4.12-14.36,4.49-20.61,9.12-2.83,2.1-6.95,3.78-9.25,6.42-1.95,2.24-1.76,4.36-2.55,6.97-.49,1.62-2,2.87-2.54,4.67s-.47,3.73-.42,5.61l.05,1.06c-.33,2.85,1.55,2.4,5.64-1.34-.06-.27-1.13-1.02-1.37-1.32-2.35-2.97-5.73-6.28-9.69-6.56s-7.01,2.25-8.16,5.86c-.42,1.31-1.75,8.7-.78,9.93l4.19-2.24c-.56-.36-1.11-.71-1.67-1.07-.58-.39-1.65-.82-2.33-1.02-2.27-.66-3.29.03-4.27-.34-4.24-1.61-6.58-4.82-11.52-1.81-2.11,1.28-3.59,3.32-4.46,5.58-.74,1.93-1.65,2.69-2.76,4.4-.78,1.21-2.3,4.41-1.84,5.96.5,1.68,4.79,1.06,4.35-.52-.17-.62-1.55-1.64-2.07-2.15-7.09-6.95-15.25-3.15-16.25,6.3-.13,1.2-.6,3.13-.33,4.3l-.2.81c3.59-1.19,4.51-2.06,2.77-2.63-.36-.39-1.43-.71-1.96-.93-.99-.42-12.1-3.05-12.53-.72.56-3.03,3.53,2.57,1.76-.32-.27-.45-1-1.03-1.4-1.43-1.23-1.24-2.47-2.58-3.98-3.5-3.8-2.32-8.69-1.84-11.28,2.03-1.94,2.89-1.67,6.48-1.43,9.78.04.62-.13,2.48.17,3l-.02.89c2.13-.8,4.27-1.6,6.4-2.39.04-.86-2.76-3.75-3.37-4.49-5.85-6.99-15.38-3.8-16.61,5.25l-.27.95c-.72,1.69-.12,1.38,1.8-.91-.02-.11-1.64-.34-1.9-.43-1.78-.68-3.57-.5-5.2-1.19-.36-.15-6.26-2.09-6.12-1.6l2.01.83c-.37-.54-.72-1.09-1.06-1.66-.42-.85-1.04-1.61-1.61-2.36-5.58-7.27-14.07-4.04-15.65,4.3-.55,2.92-.98,6.22-1.09,9.19-.01.4-.02,1.68-.17,1.27l7.17-.1-.35-.64c.04-1.38-.89-3.38-1.3-4.73-.97-3.15-2.21-6.53-5.27-8.24-4.43-2.49-8.26.44-12.55-.14-.36-.05-6.45-2.12-6.37-1.29-.08-.79,3.98,3.24.93-.08-.51-.55-1.14-1.09-1.77-1.49-3.69-2.37-8.27-1.71-11.15,1.52-1.82,2.04-3.9,5.97-4.39,8.66l-.4.73c1.33-1.46,3.28-1.44,5.85.07.08-.34-.56-1.42-.67-1.85-.57-2.3-2.13-4.54-4.07-5.88-.91-.63-11.9-3.03-11.9-2.15,0-.02,3.64,2.38.62-.95-.57-.63-1.13-1.15-1.83-1.63-2.2-1.51-5.09-2.04-7.69-1.4-1.79.44-3.89,1.62-5.05,3.09s-1.15.54.05.74c-.37-.06-1.06-.51-1.36-.74-3.75-2.87-9.95-1.79-12.98,1.45-.64.68-2.37,2.69-2.4,3.73l4.76-.37c-.23-.58-.47-1.15-.72-1.72-.13-.51-.51-1.15-.8-1.61-2.5-3.92-7.59-5.66-11.78-3.28-1.68.95-2.86,2.45-3.96,3.99-.12.17-1.61,2.48-1.63,2.47.14.09,3.2-.52.31-.9-1.98-.27-4.03-.23-6.03-.47-1.2-.14-3.12-.55-4.3,0-1.68-.2-1.74.24-.17,1.3l-.11-.59c.77-1.21-1.23-5.02-1.91-5.99-1.24-1.76-3.14-3.22-5.27-3.7s-4.26-.09-6.11.93c-.57.32-4.31,2.66-4.37,3.41.24-3.09,4.88,2.68,2.28-1.25-.55-.83-1.03-1.31-1.73-1.92l-1.21-.94c-1.61-1-1.61-.76,0,.73,0-.05-.26-.89-.19-1.18.78-3.09-1.18-8.49-3.45-10.5-3.14-2.78-7.65-2.43-10.66.36-1.65,1.52-5.37,6.67-5.34,8.98l-.44.77c.21.8.93.53,2.16-.82-.01.4-2.69-1.2-2.98-1.22l-1.41-.82c.59,2.74.88,3.35.86,1.83-.07.07.15-.64.21-.76,1.37-2.7,2.2-6.8,2.7-9.77,1.5-8.87-6.88-13.82-13.85-7.79-1.2,1.04-2.34,2.24-3.36,3.47-.23.28-1.25,1.11-1.38,1.44l6.02,3.94.04.26c1.8-1.38,3.57-6.75,3.96-8.8.77-3.97-1.05-8.12-5.08-9.42-3.71-1.2-7.37.9-10.46,2.72-.55.33-3.49,1.59-3.64,2.13.4-1.43,3.18,3.17,2.78-.08-.05-.42-.77-2.03-1.09-2.58-3.01-5.18-7.29-5.01-12.39-4.06,2.25-.42,1.43.05-.08-1.38-.51-.49-1.02-1.14-1.6-1.56l-1.23-1.06c.45,2.48.79,2.82,1.02,1.01.29-.61.33-1.55.42-2.24.56-4.17-1.25-10-3.61-13.54s-7.01-5.33-10.97-3.77l-1,.19c-1.98,0-1.17,1.36,2.45,4.11.28-.12.62-1.16.81-1.41,1.35-1.86,2.3-4.63,2.26-6.95-.06-3.24-2.59-9.01-4.39-11.76-1.16-1.78-2.95-3.03-4.97-3.67-.94-.3-2.49-.62-3.42-.57-.4.04-.78-.01-1.13-.16-1.75-.69-1.17.91,1.73,4.8.82-.38,1.95-2.47,2.62-3.21,1.2-1.34,2.49-2.69,3.49-4.19,2.22-3.35,3-7.59.02-10.82-2.48-2.69-6.15-2.78-9.49-2.14-2.03.39-7.43,1.2-8.89,2.36l3.45,6.37c.39-.43.81-.83,1.25-1.21.47-.26,1.05-.86,1.49-1.22,1.24-1.01,2.59-1.91,3.73-3.05,2.86-2.88,4.51-6.92,2.46-10.76-1.88-3.52-5.75-4.61-9.47-4.45-.96.04-4.23-.17-4.97.36l2.14,5.61c.44-.48.89-.95,1.36-1.41.76-.52,1.8-1.97,2.27-2.67,2.38-3.46,2.54-7.87-.34-11.14-1.26-1.43-2.93-2.3-4.72-2.9-.61-.2-2.07-.79-2.71-.67-1.23-.52-1.2-.27.07.75.61,1.17.93,1.45.96.85,1.01-.29.61-5.13.45-6.05-.36-2.03-1.07-3.82-2.63-5.24-1.46-1.33-3.23-1.96-5.13-2.37-.45-.1-3.06-.68-3.61-.45-1.18-.39-1.15.51.08,2.7-.32,2.81.03,3.53,1.05,2.17,2.62-.75,6.11-5.15,6.9-7.57.64-1.98.18-3.7.17-5.71-.02-2.61.3-5.08-.26-7.69-.4-1.89-1.93-3.96-1.97-5.88-.03-1.7,1.07-3.51.97-5.37-.13-2.51-1.19-4.93-2.78-6.86-.7-.84-1.95-1.5-2.56-2.32,1.12,1.52-.59-2.66-.46-2.42-1.49-2.65-.85.26-.73.31.54.25,3.48-2.13,4.06-2.56,3.43-2.59,5.74-7.16,3.42-11.31-3.36-6.01-12.48-4.66-18.19-5.17-.72-.06-2.53-.64-3.23-.5,2.75-.55-1.63,7.6,1.78,6.8.46-.11,1.14-.56,1.6-.77,3.12-1.43,6.58-2.35,9.01-4.94,2.26-2.43,3.13-7.18,3.68-10.38.4-2.29.27-4.52-.82-6.61-.53-1.03-1.42-1.78-1.99-2.77-1.41-2.43.33,1.99-.01-1.08-.21-1.85-.62-4.16-1.99-5.56l-.58-.75c-.77-1.49-1.06-.94-.87,1.65.1.07,1.34-1.01,1.45-1.09,1.81-1.39,2.27-3.31,2.9-5.33.56-1.8,1.8-3.88,2.05-5.77.58-4.27-.54.98-1.3.25.07.07,1.59-.45,1.84-.54,1.82-.62,3.55-1.49,4.83-2.96,2.94-3.4,2.7-8.02-.46-11.15-2.3-2.27-5.44-3.42-8.24-4.9-.23-.12-2.19-1.4-2.36-1.32.05-.02-.8,5.92-.79,5.93.39.34,3.79-.97,4.47-1.22,4.44-1.66,4.83-4.27,6.55-8.08,2.04-4.51,3.59-8.14.04-12.42-1.14-1.38-2.55-2.39-3.94-3.5-.04-.03-1.91-1.61-1.95-1.6-.16.03-.13,3.03,0,3.05,1.27.2,3.62-4.99,3.94-4.91l-1.82,1.55c-.37-.03-.1-.05.79-.05.41.21,2.4.02,2.87.03,6.21.13,17.32-.73,14.31-10.22-1.12-3.52-4.36-5.42-7.28-7.3-.28-.18-2.12-1.61-2.39-1.55.39-.09-1.86,5.87-1.48,6.14.57.4,4.07-.28,5.02-.37,3.59-.35,7.12-1.37,8.89-4.83,1.13-2.21,1.2-4.69.85-7.09-.29-2.03.07-4.03-.38-6.02-.69-3.03-4-6.63-6.93-7.67l-.81-.55c-1.61-1.6-2.39.25-2.34,5.55.35.12,1.56-.07,2.02-.1,2.31-.14,4.72-.29,6.79-1.45,1.62-.91,2.4-2.42,3.73-3.58,1.56-1.37,3.43-1.95,4.74-3.77,3.18-4.41,1.38-7.83.93-12.43-.23-2.34.13-4.1-1.11-6.26-.61-1.07-2.31-3.87-3.55-4.39l-2.56,5.01c-.3.29-.04.34.77.17.35.16.88.18,1.25.23,2.03.29,4.08.81,6.14.74,3.99-.14,7.43-2.51,8.42-6.52.49-1.97.31-4.32-.74-6.1l-.27-.55c-1.31,4.67-1,6.07.94,4.22.65-.2,1.95-1.49,2.47-1.88,3.59-2.7,8.22-4.81,10.24-9.08,1.14-2.41.73-4.39.71-6.89s-1.06,2.96.31-1.55c.3-.98.56-1.96.54-3.01-.06-2.57-1.91-7.39-3.98-9l-5.1,4.72c.3.06.6.15.88.27.32.32,1.29.66,1.74.9,1.91,1,3.79,2.13,5.84,2.85,3.82,1.34,5.96.23,9.56-1,4.14-1.41,8.78-2.05,12.75-3.87s6.71-5.34,5.9-9.87c-.67-3.72-3.47-6.24-5.62-9.15-.16-.21-1.07-1.75-1.2-1.76,1.01.03-2.09,5.36.43,1.79.82-1.17.79-3.49,1.85-4.42.59-.52,3.08-.3,3.97-.6s1.96-.81,2.78-1.36c1.5-1,5.37-4.74,4.77-7.04l-3.83.62c-.38-.23-.19-.13.56.31.19.28,1.32.88,1.51,1.01,1.37.94,2.64,2.04,3.99,3.01,2.8,2.04,6.25,4.03,9.84,2.96,1.98-.59,3.71-2.14,4.73-3.92.62-1.09,2.12-5.54.89-6.65l-.06-.47c-.86,1.79-.76,2.06.31.81.67-.63,1.02-1.35,1.41-2.14.65-1.35.9-2.58,1.03-4.07.04-.42.51-2.82-.05-1.71,1.14-2.26,2.63-2.89,2.94-5.69.06-.53.25-3.19-.19-3.41-.67-.33-.24,1.37-.69,1.22.84.28,4.51-2.4,4.36-2.39,2.09-.09,4.42,2.03,6.85,1.95,1.76-.06,3.59-.6,5.34-.81,2.25-.28,4.09-.71,5.93-2.07,4.08-3,4.28-7.34,3.46-11.94-.03-.17-.34-2.3-.42-2.33l-2.07,1.37c-2.37.66-2.76,1.32-1.16,1.96.96,1.31,3.64,2.44,5.18,2.88,4,1.16,9.87-.23,13.41-2.29.56-.33,4.9-3.16,4.65-4.31.88,4.04-4.53-3.17-1.51.43.48.57,1.35,1.17,1.98,1.6,3.51,2.38,8.31,2.78,11.43-.53,2.41-2.56,2.72-6.25,3.04-9.57.13-1.32.73-3.54.4-4.82l.05-.09c.8-2.42-.86-1.89-4.97,1.58.02.33.8.94.96,1.25.9,1.66,2.75,3.19,4.41,4.04-.44-.22,3.17,1.68,2.01.72.55.46.89,1.2,1.41,1.71,2.95,2.93,7.78,3.51,10.9.38,2.3-2.32,2.27-6.16,0-8.49-1.83-1.87-4.3-1.94-6.73-1.99-1.17-.02-2.34.02-3.52-.02-3.46-.1-1.29-.86.66,2.06l.6,4.62c-.6,2.52-1.97,2.34.87.9,1.06-.54,2.13-1.05,3.29-1.35-1.58.41,2.37-.31,3.12-.7,1.35-.71,2.35-2.38,3.26-3.11l-4.24,1.76c-1.51.1-3.17-4.28-3.86-2.55-.16.41.2,1.75.25,2.15.25,1.8.59,3.46,1.7,4.94,2.3,3.07,6.25,3.38,9.51,1.67l-4.62.6c-1.21-.3,2.09.62,2.81.6,1.79-.04,3.19-.85,4.6-1.83,1.06-.73,1.99-1.63,2.94-2.49,2.86-2.59,1.59-.47-1.69-1.41-1.2-2.94-2.39-5.88-3.59-8.81-1.26,2.72-4.11,4.63-5.37,7.35-2.03,4.38.46,8.51,5.18,9.03,1.86.2,3.98.65,5.86.35,3.12-.5-.03-.83,1.44.05.81.48,1.44,1.25,2.27,1.73,1.94,1.12,4.09,1.57,6.3,1.34,1.47-.15,5.88-1.12,6.26-3.02.14-.69-2.66-.58-1.91,1.18.35.82,1.56,1.5,2.28,1.95,2.17,1.35,4.2,1.28,6.54,1.93,1.49.41.68.04,1.92,2.14s2.61,3.6,4.66,4.72c3.53,1.93,9.31,1.43,11.79-2.22.06-.09.9-.78.84-.89l-2.05.29c.76.26,1.53.49,2.3.68,1.98.55,3.72,1.51,5.67,2.14.66.21,1.28.34,1.96.5,1.95.45,1.73,1.08,1.11-.58.54,1.44.3,3.17.79,4.66,1.52,4.56,6.26,7.33,11.01,5.97,1.11-.32,4.91-1.93,5.19-3.09l.46-.28-2.14-.33c-.32.41,2.68,2.79,2.87,2.92,4.12,2.93,8.3,1.92,12.17-.82.13-.09,1.52-.92,1.67-1.18l-4.48-2.71c-.02.7-.08,1.41-.17,2.1-.16,1.89-.32,3.73.23,5.59.61,2.06,1.96,3.74,3.74,4.91.83.55,1.75.97,2.68,1.33,2.62,1.01-.52-.95,1.47.93,2.92,2.76,8.07,3.47,11.45.95l.94-.46c1.3-.4.66-.87-1.92-1.42-.13.18.67,2.02.67,2,1.17,2.8,3.18,4.84,6.05,5.92,2.62.98,4.71-.14,7.14.29-1.5-.27-.68.58.07,1.95.42.76.98,1.5,1.53,2.15,2.67,3.17,6.24,5.28,8.54,8.55,2.6,3.7,6.47,5.8,11.02,4.83,1.6-.34,3.28-.97,4.74-1.72l.93-.35c2.7-.5,1.6-1.97-3.29-4.39-.21.18-.83,1.84-.91,2.03-1.46,3.23-3.28,6.46-2.05,10.12.81,2.41,2.73,4.13,4.91,5.33.95.52,1.97.86,3,1.15.95.28.57-1.39.25.52-.89,5.29,4,8.77,7.85,11,1.87,1.09,3.64,2.43,5.77,2.95,1.06.26,2.07.27,3.15.2.9-.07,1.78-.22,2.64-.46,1.25-.27,1.39-.35.43-.25-1.15-.86,2.31,5.48,1.91,3.35-.32-1.69-.71,1.08-.82,1.41-.34,1-.76,1.98-1,3.01-1.12,4.76.79,9.05,5.35,11.04,1.11.48,2.22.74,3.43.83l1.02.05c-1.29-.67-1.59-.36-.92.96-.16,2.1,2.05,5.01,3.42,6.36,1.68,1.65,3.84,2.66,6.1,3.21,2.14.52,4.13,1.54,6.26,1.97,1.95.39,3.9.1,5.77-.51.71-.23,4.41-1.28,4.59-1.8,0,.01-3.82-5.07-3.9-5.07-.13.02-.46.72-.75.94-1.59,1.25-3.08,3.47-4.24,5.08-5.55,7.71-.3,15.98,9.1,14.24,1.37-.25,3.24-1.19,4.6-1.02-2.49-.3-.99-.62-1.11.42-.08.67.83,2.32,1.27,2.88l.82,1.16c.42-2.67.32-3.4-.3-2.19-.48.24-1.05,1.74-1.27,2.21-1.15,2.38-1.54,4.94-.65,7.47,1.06,3.02,2.98,4.06,5.32,5.88l1.43.6-.39.04c.72,1.05,1.11,2.74,1.58,3.93,1.64,4.13,2.99,10.31,6.74,12.94,1.58,1.11,3.42,1.34,5.15,2.06.85.36.79.24-.06-.49.82.71,1.19,2.42,2.16,3.29,1.06.96,2.35,1.06,3.37,1.91-1.7-1.42.39,1.49.65,2.13l.31.82c.32,2.16.93,1.75,1.84-1.23,0,0-2.29,1.37-2.37,1.41-3.57,2.11-7.43,4.67-7.32,9.36.06,2.64,1.36,4.91,3.28,6.62.71.63,1.8,1.04,2.47,1.69.64.43.6.28-.12-.45.12.84.38,1.63.8,2.37.71,1.39,3.19,4.67,4.84,4.7l.82.54-.07-4.66c-.35-.23-3.38,2.22-3.55,2.38-2.06,1.95-2.19,3.89-2.83,6.48-.59,2.38-1.52,4.12-1.47,6.71.15,7.71,12.15,7.74,12,0Z"/>
</svg>