<?xml version="1.0" encoding="UTF-8"?>
<svg id="Layer_1" data-name="Layer 1" xmlns="http://www.w3.org/2000/svg" viewBox="0 0 16 16">
  <defs>
    <style>
      .cls-1 {
        fill: #fff310;
      }

      .cls-2 {
        fill: #333;
      }
    </style>
  </defs>
  <path class="cls-1" d="m6.65.13c-1.69-.39-3.63.58-4.48,2.08-.24.41-.28.83-.4,1.27-.08.29-.23.57-.35.88-.31.84-.27,1.77-.28,2.66s-.06,1.76.09,2.62.56,1.65,1.07,2.34c1.01,1.38,2.25,2.41,3.93,2.87s3.4.31,5.04-.1c1.54-.38,3.35-.91,4.11-2.45s.74-3.57.53-5.23c-.11-.9-.23-1.83-.72-2.61s-1.21-1.32-1.95-1.8c-1.52-.99-3.39-1.82-5.18-2.15-1.02-.18-2.11-.24-3.13.02-1.25.32-2.02,1.59-1.32,2.79.97,1.67,3.57.16,2.59-1.51l-.07-.12.2.76v-.15c-.06.25-.13.5-.2.76l.08-.13-.54.54c-.11.08-.06,0,.05-.03s.15-.03.23-.04c.28-.04.57-.03.85-.02.58.03,1.15.19,1.7.36,1.06.34,2.09.82,3.03,1.41.36.22.8.48,1.05.83s.29.9.34,1.32c.13,1.1.18,2.42-.17,3.49-.1.3-.19.36-.57.54-.31.15-.96.33-1.41.45-1,.27-2.08.46-3.09.33-1.86-.24-3.56-1.78-3.57-3.72,0-.72,0-1.43.02-2.15.01-.65.16-.99.39-1.59.11-.28.14-.57.22-.85.04-.14.04-.16.19-.3s.34-.28.59-.39h0c-.02-.07.04-.09.18-.07.08-.02.23,0,.13-.01.79.18,1.62-.24,1.85-1.05.21-.76-.25-1.66-1.05-1.85h0Z"/>
  <path class="cls-1" d="m5.93,1.1c-1.63.55-2.37,2.68-2.6,4.24-.26,1.78.03,3.47.8,5.09.37.78.86,1.5,1.63,1.94s1.59.56,2.42.59c.93.04,1.86-.05,2.79-.19,1.02-.16,2.04-.36,2.48-1.41.33-.79.29-1.87.22-2.71s-.21-1.77-.5-2.59c-.32-.89-.81-1.73-1.66-2.22-.8-.46-1.75-.52-2.65-.57-1.04-.05-2.15,0-2.66,1.08-.39.85-.52,1.85-.6,2.77s.1,1.95.82,2.65c.63.61,1.49.98,2.31,1.25,1.29.42,2.53.06,3-1.3.32-.91.53-2.02.18-2.95-.4-1.07-1.38-2.01-2.6-1.85-1.42.19-2.04,1.94-1.55,3.17.29.73,1.01,1.32,1.85,1.05.7-.23,1.36-1.07,1.05-1.85-.03-.06-.06-.13-.07-.2-.03-.11-.02-.09.01.05-.02.11-.03.27-.13.34l-.66.39c-.22.06-.43.04-.63-.06-.14-.12-.15-.12-.03,0-.11-.14-.12-.14-.03,0l-.06-.13c.03.08.05.16.06.24-.03-.17-.04-.16-.03.04-.08.32.05-.07-.04.23-.06.19-.14.42-.17.62-.11.66.62-.82,1.05-.56-.14-.09-.39-.11-.55-.17-.09-.03-.19-.07-.28-.11.1.04.11.04.01,0-.15-.07-.29-.16-.45-.23-.14-.1-.16-.1-.03,0-.11-.11-.13-.13-.07-.04.05.09.04.06-.04-.07.06.14.07.13.02-.04.03.16.04.16.02-.03,0-.07,0-.14,0-.21.01-.18.03-.37.05-.55-.03.23.05-.26.06-.32.04-.18.08-.37.12-.55.03-.1.06-.21.09-.31-.04.09-.09.17-.14.25l-.66.39s.22-.06.05-.03c-.21.03.12.02.16.02.16,0,.31,0,.47.02.18,0,.37.02.55.03.07,0,.15.02.22.02.16,0-.14-.05.12.02.07.02.41.12.2.03.08.04.18.09.25.15-.02-.02-.18-.13-.05-.02s0-.03-.02-.05c.05.07.1.15.14.23.03.06.06.12.09.18.1.19-.05-.19,0,.02.09.35.21.69.29,1.04.03.16.07.33.09.49.04.27-.02-.18,0,.09,0,.11.02.22.03.33.02.36.02.72,0,1.08,0,.11-.02.22-.02.33v.08c-.02.1-.02.11,0,.02-.09-.07.75-.69.72-.7-.08-.03-.28.07-.36.09-.17.04-.34.07-.51.1-.11.02-.23.04-.34.06-.18.03-.07,0-.03,0-.4.05-.8.08-1.2.08-.36,0-.73,0-1.09-.03-.29-.02.15.05-.13-.02-.06-.02-.13-.03-.19-.05-.12-.03-.27-.09-.07,0-.12-.05-.24-.12-.34-.19.25.19.01,0,0-.03,0,.02.13.18.03.03-.2-.3-.37-.64-.52-.97.08.18-.06-.16-.08-.22-.06-.17-.11-.33-.16-.5-.04-.14-.07-.28-.1-.42,0-.04-.06-.33-.03-.16.03.15-.01-.13-.02-.16-.03-.38-.03-.77,0-1.15,0-.07.01-.14.02-.22-.02.16-.01.08,0-.03.04-.19.08-.38.13-.56s.11-.37.17-.55c0,0,.08-.23.03-.09s.1-.22.1-.22c.07-.15.15-.3.24-.44.05-.08.1-.16.15-.24.05-.07.05-.07,0,0-.08.13-.2.22-.37.25.74-.25,1.31-1.04,1.05-1.85-.24-.74-1.05-1.32-1.85-1.05h0Z"/>
  <path class="cls-2" d="m.77,3.79c2.26.83,4.65,1.09,7.04,1.19,2.15.09,4.57.37,6.56-.6.43-.21.05-.86-.38-.65-1.9.93-4.38.58-6.43.49-2.25-.1-4.48-.37-6.6-1.15-.45-.17-.65.56-.2.72h0Z"/>
  <path class="cls-2" d="m.63,9.19c2.51.64,5.06,1.12,7.61,1.61s4.92.91,7.42,1.1c.48.04.48-.71,0-.75-2.53-.19-5.02-.65-7.51-1.12s-4.9-.94-7.32-1.55c-.47-.12-.67.6-.2.72h0Z"/>
  <path class="cls-2" d="m5.71.77c-1.71,3.72-3.42,7.55-3.46,11.72,0,.48.75.48.75,0,.04-4.03,1.71-7.75,3.36-11.35.2-.44-.45-.82-.65-.38h0Z"/>
  <path class="cls-2" d="m11.42,1.82c-1.15,1.83-1.87,3.8-2.34,5.91-.24,1.08-.54,2.12-.95,3.15s-.87,2.09-1.09,3.2c-.09.47.63.67.72.2.21-1.08.64-2.09,1.04-3.1s.71-2,.94-3.04c.48-2.12,1.16-4.09,2.32-5.94.26-.41-.39-.79-.65-.38h0Z"/>
  <path class="cls-2" d="m4.89,5.86c.71,1.2,1.52,2.33,2.43,3.38.13.15.39.14.53,0,.15-.15.13-.38,0-.53-.87-1-1.64-2.08-2.32-3.22-.25-.42-.89-.04-.65.38h0Z"/>
  <path class="cls-2" d="m8.3,4.83c-1.74.96-3.38,2.1-4.91,3.37-.37.31.16.84.53.53,1.48-1.24,3.07-2.33,4.75-3.26.42-.23.04-.88-.38-.65h0Z"/>
</svg>