<?xml version="1.0" encoding="UTF-8"?>
<svg id="Layer_1" data-name="Layer 1" xmlns="http://www.w3.org/2000/svg" viewBox="0 0 24 24">
  <defs>
    <style>
      .cls-1, .cls-2 {
        fill: #fff;
        opacity: .12;
      }

      .cls-3 {
        fill: #fd0;
      }

      .cls-4 {
        fill: none;
        stroke-width: .5px;
      }

      .cls-4, .cls-2 {
        stroke: #000;
        stroke-miterlimit: 10;
      }

      .cls-2 {
        stroke-width: .25px;
      }
    </style>
  </defs>
  <rect class="cls-2" x="6" y="6" width="6" height="6"/>
  <rect class="cls-2" x="12" y="6" width="6" height="6"/>
  <rect class="cls-2" x="6" y="12" width="6" height="6"/>
  <rect class="cls-2" x="12" y="12" width="6" height="6"/>
  <rect class="cls-1" x="6" y="6" width="6" height="6"/>
  <rect class="cls-1" x="12" y="6" width="6" height="6"/>
  <rect class="cls-1" x="6" y="12" width="6" height="6"/>
  <rect class="cls-1" x="12" y="12" width="6" height="6"/>
  <rect class="cls-2" x="6" y="6" width="6" height="6"/>
  <rect class="cls-2" x="12" y="6" width="6" height="6"/>
  <rect class="cls-2" x="6" y="12" width="6" height="6"/>
  <rect class="cls-2" x="12" y="12" width="6" height="6"/>
  <rect class="cls-3" x="3" y="3" width="18" height="18"/>
  <line class="cls-4" x1="9.5" y1="2.5" x2="8.5" y2="22.5"/>
  <line class="cls-4" x1="2.5" y1="7.5" x2="23" y2="8.5"/>
  <line class="cls-4" x1="21.75" y1="15.75" x2="1.5" y2="14.5"/>
  <line class="cls-4" x1="15.5" y1="1.5" x2="14.5" y2="21.5"/>
  <path d="m10.51,4.15l2.12,1.43c.16.11.42.04.51-.13.1-.19.04-.4-.13-.51l-2.12-1.43c-.16-.11-.42-.04-.51.13-.1.19-.04.4.13.51h0Z"/>
  <path d="m12.18,2.97c-.4.26-.61.67-.81,1.08-.23.47-.47.94-.7,1.42-.09.18-.05.41.13.51.17.09.42.05.51-.13.22-.44.44-.89.66-1.33.09-.19.18-.37.29-.55.03-.04.05-.08.08-.12.01-.02.03-.04.04-.06-.02.03-.02.03.01,0,.03-.03.07-.07.1-.1.02-.02.04-.03.06-.05-.03.02-.02.02.01,0,.16-.11.25-.34.13-.51-.1-.16-.34-.25-.51-.13h0Z"/>
  <path d="m17.33,10.43s.09.05.14.08c.03.02-.03-.03.02.02.02.02.04.03.05.05.08.08.16.16.24.24.18.18.35.37.53.55.35.36.69.73,1.04,1.09.14.14.4.15.53,0s.14-.38,0-.53c-.36-.37-.71-.75-1.07-1.12-.18-.18-.35-.37-.53-.55s-.35-.37-.57-.47c-.18-.08-.41-.05-.51.13-.09.17-.05.42.13.51h0Z"/>
  <path d="m19.6,9.38c-.48.61-.96,1.22-1.43,1.84-.42.55-.79,1.13-.85,1.84-.02.2.18.38.38.38.22,0,.36-.17.38-.38.05-.56.43-1.05.76-1.47.43-.56.87-1.12,1.3-1.67.12-.16.16-.37,0-.53-.13-.13-.41-.16-.53,0h0Z"/>
  <path d="m11.21,10.45c-.43.38-.46,1.05-.45,1.59,0,.32.07.64.26.91.17.24.4.42.66.55s.61.34.92.29.53-.35.66-.61c.27-.53.28-1.17,0-1.7-.3-.57-.9-.93-1.54-.97-.2-.01-.38.18-.38.38,0,.21.17.36.38.38.03,0,.05,0,.08,0,0,0-.05,0,0,0s.09.02.13.03c.05.01.1.03.15.05-.04-.02.06.03.08.05.04.02.08.05.11.07,0,0,.07.05.04.03-.03-.02.02.02.02.02.03.03.07.06.1.09.02.02.04.04.05.06,0,0,.05.07.03.03.12.17.17.28.2.49,0-.05,0,.07,0,.08,0,.05,0,.09,0,.14,0,.02,0,.04,0,.06,0,.07,0-.04,0,.02-.01.05-.02.11-.04.16-.03.12-.04.13-.1.23s-.1.12-.15.2c-.02.04,0,0,0,0,0,0,.07,0,.07,0,0,.01-.1-.03-.1-.03-.1-.04-.2-.09-.3-.14-.33-.17-.58-.36-.6-.75,0-.13,0-.26,0-.4,0-.05,0-.11,0-.16,0-.03,0-.05,0-.08,0,0,.01-.09,0-.04.01-.1.04-.21.07-.3-.02.05,0,0,0-.01.02-.03.03-.05.05-.08.02-.04,0,0,0,0,.02-.03.05-.05.08-.08.15-.13.14-.39,0-.53-.15-.15-.38-.13-.53,0h0Z"/>
  <path d="m6.29,16.95c-.88-.42-1.89.09-2.27.94-.21.46-.27.97-.24,1.47.03.47.11.96.43,1.33.34.39.86.48,1.35.44.54-.04,1.1-.09,1.63-.18s.84-.54.81-1.06c-.02-.26-.11-.51-.2-.76s-.19-.51-.3-.75c-.44-.97-1.33-1.95-2.5-1.8-.2.03-.38.15-.38.38,0,.18.17.4.38.38.71-.09,1.27.39,1.62.97.19.33.33.68.46,1.04.07.19.32.67.1.85-.1.08-.35.07-.47.08-.23.03-.46.05-.69.08-.33.04-.73.13-1.06,0-.28-.11-.37-.43-.41-.7-.05-.33-.05-.69.01-1.02s.21-.68.51-.89c.23-.17.56-.27.83-.14.18.09.41.05.51-.13.1-.16.05-.42-.13-.51h0Z"/>
</svg>