<?xml version="1.0" encoding="UTF-8"?>
<svg id="Layer_1" data-name="Layer 1" xmlns="http://www.w3.org/2000/svg" viewBox="0 0 16 16">
  <defs>
    <style>
      .cls-1, .cls-2 {
        fill: #fff;
        opacity: .12;
      }

      .cls-3 {
        fill: #fd0;
      }

      .cls-4 {
        fill: none;
        stroke-width: .5px;
      }

      .cls-4, .cls-2 {
        stroke: #000;
        stroke-miterlimit: 10;
      }

      .cls-2 {
        stroke-width: .25px;
      }
    </style>
  </defs>
  <rect class="cls-1" x="4" y="4" width="4" height="4"/>
  <rect class="cls-1" x="8" y="4" width="4" height="4"/>
  <rect class="cls-1" x="4" y="8" width="4" height="4"/>
  <rect class="cls-1" x="8" y="8" width="4" height="4"/>
  <rect class="cls-2" x="4" y="4" width="4" height="4"/>
  <rect class="cls-2" x="8" y="4" width="4" height="4"/>
  <rect class="cls-2" x="4" y="8" width="4" height="4"/>
  <rect class="cls-2" x="8" y="8" width="4" height="4"/>
  <rect class="cls-3" x="2" y="2" width="12" height="12"/>
  <line class="cls-4" x1="6.5" y1="1.5" x2="5.5" y2="15.5"/>
  <line class="cls-4" x1="1.5" y1="4.5" x2="15" y2="5.5"/>
  <line class="cls-4" x1="14.5" y1="10.5" x2="1.5" y2="9.5"/>
  <line class="cls-4" x1="10.5" y1="1" x2="9.5" y2="14.5"/>
  <path d="m6.94,2.88l1.41.95c.16.11.42.04.51-.13.1-.19.04-.4-.13-.51l-1.41-.95c-.16-.11-.42-.04-.51.13-.1.19-.04.4.13.51h0Z"/>
  <path d="m8.05,1.87c-.28.19-.44.47-.59.77-.16.31-.31.63-.47.94-.09.18-.05.41.13.51.17.09.42.05.51-.13.15-.3.29-.59.44-.89.06-.12.12-.25.19-.37.02-.03.03-.06.05-.08,0-.01.02-.03.03-.04-.03.04-.04.05-.01.02.02-.02.04-.05.07-.07.01-.01.02-.02.04-.03-.04.03-.05.04-.02.02.16-.11.25-.34.13-.51-.1-.16-.34-.25-.51-.13h0Z"/>
  <path d="m11.49,7.06s.06.03.09.05c.04.02-.06-.05-.01,0,.01.01.02.02.04.03.05.05.11.11.16.16.12.12.23.25.35.37.23.24.46.49.69.73.14.14.4.15.53,0s.14-.38,0-.53c-.24-.25-.48-.5-.71-.75-.12-.12-.23-.25-.35-.37s-.25-.26-.41-.34c-.09-.04-.19-.07-.29-.04-.09.02-.18.09-.22.17-.09.17-.05.42.13.51h0Z"/>
  <path d="m12.98,6.17c-.33.42-.65.83-.97,1.25-.3.39-.54.79-.59,1.29-.02.2.18.38.38.38.22,0,.36-.17.38-.38,0-.05,0-.05,0-.01,0-.02,0-.05.01-.07.01-.05.02-.1.04-.14,0-.02.02-.05.03-.07-.01.03-.01.03,0-.01.02-.04.05-.09.07-.13.05-.09.11-.17.17-.26.03-.04.06-.08.09-.12.02-.02.03-.04.05-.06-.02.03-.02.02.01-.01.29-.37.58-.74.87-1.12.12-.15.16-.38,0-.53-.13-.12-.4-.17-.53,0h0Z"/>
  <path d="m7.38,6.88c-.31.28-.35.75-.33,1.15,0,.23.05.47.19.67.13.18.29.31.48.41.21.11.46.25.71.2s.41-.26.52-.47c.2-.4.21-.87,0-1.26-.22-.42-.67-.68-1.13-.71-.2-.01-.38.18-.38.38,0,.21.16.36.38.38.01,0,.04,0,.05,0,0,0-.08-.01-.04,0,.03,0,.06.01.09.02s.07.03.1.03c0,0-.07-.03-.03-.01.02.01.04.02.06.03.03.01.05.03.08.05.08.05-.03-.03.02.01.02.02.04.04.07.06.01.01.02.03.03.04,0,0,.01.01.02.02.02.02.01.01-.02-.02,0,.02.04.06.05.08.01.02.04.06.04.08,0,0-.03-.09,0-.02,0,.01,0,.03.01.04,0,.03.01.1.03.12,0,0,0-.07,0-.03,0,.02,0,.04,0,.05,0,.03,0,.06,0,.09,0,.01,0,.03,0,.04,0,.05.02-.07,0-.02,0,.04-.01.07-.03.11,0,.02-.03.07-.03.09,0-.03.03-.06,0-.02,0,.02-.02.03-.03.05-.02.03-.03.05-.05.08-.02.04.01-.02.02-.02,0,0-.04.04-.04.05-.03.03.03-.02.05-.03.02,0,.13,0,.13-.01,0,0-.06-.02-.06-.02,0,0,.06.03.02,0-.07-.03-.13-.06-.2-.09-.06-.03-.11-.06-.16-.09-.08-.05.03.03-.02-.01-.03-.02-.05-.05-.08-.07-.05-.05,0,.01,0,.02,0,0-.03-.04-.03-.04,0-.01-.01-.02-.02-.03,0-.01-.03-.07-.01-.02s0,0,0-.01c0-.02-.01-.04-.02-.06,0-.02-.01-.04-.01-.06,0,.03,0,.05,0,0,0-.09,0-.18,0-.27,0-.04,0-.07,0-.11,0-.02,0-.04,0-.05,0-.03.02-.08,0,0,0-.03.01-.07.02-.1,0-.03.03-.07.03-.1,0,.04-.03.06,0,.02.01-.02.02-.04.03-.05.02-.03-.02.03-.02.03,0,0,.05-.05.05-.05.15-.13.14-.4,0-.53-.16-.14-.37-.14-.53,0h0Z"/>
  <path d="m4.26,11.2c-.64-.31-1.4.04-1.68.67-.15.33-.2.69-.18,1.04s.09.7.32.97c.25.28.63.36.99.33s.76-.06,1.12-.12c.4-.07.66-.43.63-.83-.01-.19-.07-.36-.14-.54s-.14-.36-.21-.53c-.31-.68-.96-1.37-1.77-1.26-.2.03-.38.15-.38.38,0,.18.17.4.38.38.06,0,.12-.01.17,0,.02,0,.1.01.03,0,.03,0,.05,0,.08.02.13.03.15.04.27.12.16.1.31.27.42.46.14.23.21.42.3.66.04.11.1.24.11.34,0-.03,0,.08,0,.08,0-.02.02-.05,0,0,0,.01-.02.07,0,0-.02.03-.02.04-.01.02,0-.01.02-.02.03-.03h0s.01,0-.03,0c-.05.02-.05.01-.02,0-.07.01-.14.02-.21.02-.15.02-.31.03-.46.05-.12.01-.23.03-.35.03-.06,0-.12,0-.18,0-.07,0,.08.02-.04,0-.03,0-.06-.01-.1-.03-.05-.02.04.04-.03-.02.01,0,.04.04-.01-.01-.02-.02-.03-.03-.05-.05.04.05,0,0,0-.01-.01-.02-.02-.04-.03-.06.03.06,0-.02,0-.03-.02-.06-.03-.12-.04-.18-.01-.07,0,.09,0-.03,0-.03,0-.05,0-.08,0-.06,0-.11,0-.17,0-.06,0-.13,0-.19,0-.09,0-.08.02-.15s.03-.13.05-.2c0,0,.03-.08.02-.05,0,.02,0,.01.02-.03,0-.02.02-.04.03-.05.01-.02.03-.05.04-.07.02-.02.02-.02,0,0,.01-.01.02-.03.04-.04.02-.02.03-.03.05-.05.01-.01.03-.02.04-.04-.02.02-.03.02,0,0,.02-.01.04-.03.06-.04.01,0,.1-.05.07-.04-.04.02.03,0,.04-.01.03-.01.07-.02.1-.03.06-.01-.06,0,0,0,.03,0,.07,0,.1,0,.06,0-.05-.01,0,0,.02,0,.12.05.06.02.18.09.41.05.51-.13.1-.16.05-.42-.13-.51h0Z"/>
</svg>