<?xml version="1.0" encoding="UTF-8"?>
<svg id="Layer_1" data-name="Layer 1" xmlns="http://www.w3.org/2000/svg" viewBox="0 0 29.4 539.66" preserveAspectRatio="none">
  <defs>
    <style>
      .cls-1 {
        fill: none;
        stroke: #000;
        stroke-miterlimit: 10;
        stroke-width: 17px;
      }
    </style>
  </defs>
  <path class="cls-1" d="m19.6,15.21c-.04,18.36-6.06,18.34-6.1,36.7-.04,18.36-2.37,18.35-2.4,36.71-.04,18.36,3.95,18.36,3.92,36.72s4.65,18.37,4.62,36.72c-.04,18.36-5.65,18.35-5.68,36.7-.04,18.36-3.48,18.35-3.52,36.71s9.36,18.37,9.33,36.73c-.04,18.36-11.22,18.33-11.25,36.69s4.55,18.37,4.52,36.72c-.04,18.36,2.59,18.36,2.56,36.72-.04,18.36-1.58,18.36-1.62,36.71s-5.24,18.35-5.28,36.71,6.36,18.37,6.32,36.73c-.04,18.36-6.03,18.35-6.06,36.71"/>
  <path d="m1.46,528.11c-1.68,5.2,1.95,11.36,7.62,11.55,2.64.09,5.02-1.24,6.6-3.29,1.83-2.36,2.32-5.93.56-8.51-.88-1.29-2.01-2.31-3.56-2.74-1.43-.39-3.32-.22-4.59.6s-2.39,2.04-2.74,3.56-.3,3.27.6,4.59c.07.09.13.19.18.3l-.6-1.42c.04.1.07.21.09.32l-.21-1.58c.02.11.02.22,0,.33l.21-1.58c-.02.17-.06.32-.12.49l.6-1.42c-.07.17-.15.31-.25.46l.93-1.2c-.15.19-.31.36-.5.52l1.2-.93c-.15.11-.3.19-.47.28l1.42-.6c-.17.07-.33.11-.51.15l1.58-.21c-.19.02-.34.01-.53,0l1.58.21c-.12-.02-.25-.06-.36-.11l1.42.6c-.18-.08-.34-.17-.5-.28l1.2.93c-.15-.12-.28-.25-.41-.4l.93,1.2c-.16-.21-.29-.42-.41-.66l.6,1.42c-.13-.31-.21-.63-.27-.96l.21,1.58c-.03-.34-.03-.67.01-1.01l-.21,1.58c.04-.2.09-.39.15-.58.96-2.97-1.12-6.63-4.16-7.32-3.26-.74-6.3.98-7.32,4.16h0Z"/>
  <path d="m28.65,15.51c.71-2.93,1.19-6,.14-8.91C27.49,3,24.22.01,20.22,0c-3.48-.01-6.63,1.99-8.25,5.04-1.76,3.33-1.36,7-.43,10.51.79,3.01,4.29,5.14,7.32,4.16s5.01-4.1,4.16-7.32c-.16-.6-.34-1.2-.44-1.81.05.57.05.48,0-.25l-.1.37c.18-.63.14-.59-.13.15l.24-.39c-.69,1.01-1.59,1.57-2.95,1.39-.71-.03-1.33-.34-1.86-.91.38.4.42.42.12.08-.23-.22-.37-.5-.42-.82.13.52.15.58.08.19-.12-.98-.21,1.56-.05.59.1-.63-.29,1.18-.34,1.37-.73,3.02.95,6.59,4.16,7.32s6.54-.92,7.32-4.16h0Z"/>
  <path d="m16.17,19.28c7.66,0,7.67-11.91,0-11.91s-7.67,11.91,0,11.91h0Z"/>
</svg>