<?xml version="1.0" encoding="utf-8"?>
<!-- Generator: Adobe Illustrator 27.1.1, SVG Export Plug-In . SVG Version: 6.00 Build 0)  -->
<svg version="1.1" id="Layer_1" xmlns="http://www.w3.org/2000/svg" xmlns:xlink="http://www.w3.org/1999/xlink" x="0px" y="0px"
	 viewBox="0 0 592.1 30" style="enable-background:new 0 0 592.1 30;" xml:space="preserve" preserveAspectRatio="none">
<style type="text/css">
	.st0{fill:none;stroke:#000000;stroke-width:17;stroke-miterlimit:10;}
</style>
<g>
	<path class="st0" d="M16.4,19.9c8.8,0.1,13-3.9,17.4-6.4s9-5.1,17.8-5.1c8.8,0.1,12.6,3.9,17,6.2s9.3,2.3,18,2.4
		c17.6,0.1,17.5,1.6,35.1,1.7c8.8,0.1,13.6-1,18-3.1s8.4-6.6,17.1-6.5c17.6,0.1,17.5,4.6,35.1,4.7c17.5,0.1,17.5-0.7,35.1-0.6
		c17.6,0.1,17.5,0.9,35.1,1c17.6,0.1,17.6-3.5,35.1-3.4c8.8,0.1,12.8,2.8,17.2,5.2s9.1,5.3,17.9,5.4c8.8,0.1,13.6-2,18-3.9
		c4.4-1.9,8.3-5.5,17.1-5.4s13.1,2.6,17.4,4.3s8.8,2.6,17.6,2.6c17.6,0.1,17.6-4.2,35.1-4c17.6,0.1,17.5-0.4,35.1-0.3
		c17.6,0.1,17.5,4.6,35.1,4.7c17.6,0.1,17.5,1.8,35.1,2c17.6,0.1,17.6-6.3,35.1-6.2"/>
	<path d="M576.2,23.9c0.8-0.1,1.6-0.1,2.4,0l-1.6-0.2c0.4,0.1,0.9,0.2,1.3,0.3c3,0.8,6.6-1.1,7.3-4.2c0.7-3.1-1-6.4-4.2-7.3
		c-1.7-0.5-3.5-0.7-5.3-0.5c-1.6,0.2-3,0.6-4.2,1.8c-1,1-1.8,2.7-1.7,4.2c0.1,1.5,0.6,3.1,1.8,4.2C573.1,23.2,574.6,24,576.2,23.9
		C576.2,23.9,576.2,23.9,576.2,23.9z"/>
	<path d="M577.4,18.6l0.5,0.1c0.6,0.1,0.7,0.1,0.3,0c-0.1,0.2-1-0.5-0.3,0c0.6,0.4,1.5,0.7,2.2,1c1.6,0.6-1.4-1.1-0.6-0.4
		c0.6,0.5-0.5-0.8-0.1-0.1c0.2,0.3,0.4,0.6,0.7,1c0.9,1.2,1.8,2.2,3.2,3c2.6,1.7,6.7,0.6,8.1-2.2c1.6-3,0.6-6.3-2.2-8.1
		c0.3,0.2,1.2,1.4,0.6,0.5c-0.5-0.7-0.9-1.3-1.5-2c-0.9-1.1-2-1.9-3.4-2.5c-0.2-0.1-1.8-0.9-0.8-0.3c-0.8-0.5-1.5-0.9-2.4-1.2
		c-1.4-0.4-2.9-0.5-4.3-0.6c-3.1-0.3-6.1,3-5.9,6C571.6,16.2,574.1,18.2,577.4,18.6L577.4,18.6L577.4,18.6z"/>
	<path d="M15.9,15.9C15.4,16,15,16,14.5,16c-0.8,0-0.9,0-0.5,0c-0.3-0.1-1.1-0.4-1.1-0.4L8.8,25.8c2.9-0.2,5.9-0.5,8.8-0.7
		c2.4-0.2,4.5-1.4,5.4-3.7c0.8-2.1,0.6-5-1.3-6.5c-5.6-4.6-12.3-5.4-18.9-2.5c-2.9,1.3-3.6,5.6-2.1,8.2c1.8,3,5.2,3.4,8.2,2.1
		c1.2-0.5,3.4-0.2,4.5,0.7l4.2-10.2c-2.9,0.2-5.9,0.5-8.8,0.7c-2.4,0.2-4.5,1.4-5.4,3.7c-0.8,2-0.6,5,1.3,6.5
		c3.3,2.6,7.1,4.3,11.4,3.7c3.2-0.4,5.9-2.5,5.9-6C21.8,18.9,19.1,15.5,15.9,15.9L15.9,15.9L15.9,15.9z"/>
</g>
</svg>
