<?xml version="1.0" encoding="UTF-8"?>
<svg id="Layer_1" data-name="Layer 1" xmlns="http://www.w3.org/2000/svg" viewBox="0 0 27.74 537.74" preserveAspectRatio="none">
  <defs>
    <style>
      .cls-1 {
        fill: none;
        stroke: #000;
        stroke-miterlimit: 10;
        stroke-width: 17px;
      }
    </style>
  </defs>
  <path class="cls-1" d="m13.72,11.92c-.04,18.36,1.12,18.36,1.09,36.71s-1.52,18.35-1.56,36.71,4.18,18.36,4.14,36.72,1.88,18.36,1.84,36.72-2.12,18.35-2.15,36.71c-.04,18.36-5.75,18.35-5.79,36.7s7.59,18.37,7.56,36.72-2.07,18.35-2.11,36.71-3.2,18.35-3.23,36.71c-.04,18.36-1.51,18.35-1.55,36.71-.04,18.36,4.76,18.37,4.72,36.73-.04,18.36-5.58,18.35-5.62,36.71s7.63,18.38,7.59,36.74-9.92,18.34-9.96,36.7"/>
  <path d="m10.72,17.21c7.66,0,7.67-11.91,0-11.91s-7.67,11.91,0,11.91h0Z"/>
  <path d="m15.13,16.2c7.66,0,7.67-11.91,0-11.91s-7.67,11.91,0,11.91h0Z"/>
  <path d="m16.53,15.4c7.66,0,7.67-11.91,0-11.91s-7.67,11.91,0,11.91h0Z"/>
  <path d="m22.08,11.45l.12-1.08h-11.91c.34,5.29,1.04,11.14-.34,16.32-1.98,7.41,9.5,10.57,11.48,3.17,1.68-6.28,1.18-13.07.77-19.49-.5-7.77-11.08-7.54-11.91,0l-.12,1.08c-.35,3.2,2.99,5.95,5.95,5.95,3.51,0,5.6-2.74,5.95-5.95h0Z"/>
  <path d="m18.79,15.23c.55-3.74.55-7.17-.23-10.89C17.66.02,11.53-1.49,8.61,1.72c-2.36,2.59-3.86,5.81-3.11,9.37.66,3.16,2.53,6.26,5.77,7.25,3.7,1.13,7.89-.79,9.04-4.6.69-2.3.51-5.13.65-7.53l-11.69,1.58c.44,1.15.89,2.29,1.33,3.44,1.12,2.89,4.05,5.22,7.32,4.16,2.82-.91,5.36-4.21,4.16-7.32-.44-1.15-.89-2.29-1.33-3.44C19.67,1.83,17.35-.06,14.22.36s-4.99,2.85-5.16,5.85c-.06.97-.11,1.95-.17,2.92l-.07,1.17-.05.88c-.08.99.09.41.49-1.76l2.14-2.14,2.13-.49c1.98.07,3.22.81,3.73,2.21.14.36.15.37.04.06-.07-.22-.14-.45-.2-.67.28.09-.16,1.83-.26,2.14.31-.49.33-.56.06-.22-.29.33-.24.27.15-.16l-9.95-2.63c.03.13.29,1.88.15.61.06.55.1,1.11.12,1.66s.01,1.11-.02,1.66c-.01.27-.21,1.87-.02.62-.45,3.07.76,6.55,4.16,7.32,2.83.64,6.83-.86,7.32-4.16h0Z"/>
  <path d="m0,524.67c.3,4.96,2.87,9.73,7.38,12.09,3.83,2.01,8.38.93,10.13-3.21,1.02-2.41.65-5.32.63-7.88-.02-3.11-2.73-6.1-5.95-5.95s-5.97,2.62-5.95,5.95c0,.95.01,1.9.02,2.85,0,.38,0,.76,0,1.14,0,2.78-.33-1.79,2.16-2.9l3-.81,1.77.44-.36-.21-.35-.23.54.41s-.55-.53-.61-.58c-.77-.72.31.63.02.05-.12-.23-.28-.51-.43-.73-.41-.59.26.96.1.26-.06-.25-.14-.57-.23-.81-.27-.68.1,1.43.02.12-.19-3.1-2.6-6.1-5.95-5.95-3.06.14-6.15,2.62-5.95,5.95H0Z"/>
</svg>